<svg width="643" height="643" viewBox="0 0 643 643" fill="none" xmlns="http://www.w3.org/2000/svg">
<path d="M530.935 262.699C590.161 259.78 643.706 272.71 642.711 322.34C641.727 371.404 590.578 382.815 530.935 379.896C471.293 376.976 321.566 322.34 321.566 322.34C321.566 322.34 471.71 265.619 530.935 262.699Z" fill="#D9D9D9"/>
<path d="M428.164 131.821C467.979 87.8783 514.984 59.1595 549.374 94.9569C583.372 130.346 555.273 174.583 511.035 214.692C466.797 254.801 322.291 322.04 322.291 322.04C322.291 322.04 388.35 175.764 428.164 131.821Z" fill="#D9D9D9"/>
<path d="M511.06 427.913C555.003 467.728 583.722 514.733 547.925 549.123C512.536 583.121 468.299 555.022 428.19 510.784C388.08 466.546 320.842 322.04 320.842 322.04C320.842 322.04 467.117 388.099 511.06 427.913Z" fill="#D9D9D9"/>
<path d="M380.182 531.033C383.102 590.258 370.171 643.803 320.541 642.808C271.477 641.824 260.066 590.675 262.985 531.033C265.905 471.39 320.541 321.664 320.541 321.664C320.541 321.664 377.263 471.807 380.182 531.033Z" fill="#D9D9D9"/>
<path d="M214.968 511.158C175.153 555.101 128.148 583.82 93.7581 548.023C59.7605 512.634 87.8591 468.397 132.097 428.288C176.335 388.178 320.841 320.939 320.841 320.939C320.841 320.939 254.782 467.215 214.968 511.158Z" fill="#D9D9D9"/>
<path d="M112.197 380.28C52.9718 383.2 -0.573351 370.269 0.42186 320.639C1.40572 271.576 52.5547 260.164 112.197 263.084C171.84 266.003 321.566 320.639 321.566 320.639C321.566 320.639 171.423 377.361 112.197 380.28Z" fill="#D9D9D9"/>
<path d="M132.072 215.066C88.1288 175.252 59.41 128.246 95.2074 93.8562C130.596 59.8586 174.833 87.9572 214.942 132.195C255.052 176.433 322.291 320.939 322.291 320.939C322.291 320.939 176.015 254.88 132.072 215.066Z" fill="#D9D9D9"/>
<path d="M262.95 112.295C260.03 53.0697 272.961 -0.47545 322.591 0.519761C371.655 1.50362 383.066 52.6526 380.147 112.295C377.227 171.938 322.591 321.664 322.591 321.664C322.591 321.664 265.869 171.52 262.95 112.295Z" fill="#D9D9D9"/>
<circle cx="321.562" cy="321.315" r="80" fill="#BC8615"/>
</svg>
